<?xml version="1.0" encoding="utf-8"?>
<!-- Generator: Adobe Illustrator 25.2.0, SVG Export Plug-In . SVG Version: 6.00 Build 0)  -->
<svg version="1.1" id="Capa_1" xmlns="http://www.w3.org/2000/svg" xmlns:xlink="http://www.w3.org/1999/xlink" x="0px" y="0px"
	 viewBox="0 0 512 512" style="enable-background:new 0 0 512 512;" xml:space="preserve">
<style type="text/css">
	.st0{fill:#3A3938;}
	.st1{fill:#616160;}
</style>
<g>
	<g>
		<circle class="st0" cx="160" cy="83" r="64"/>
	</g>
</g>
<g>
	<g>
		<path class="st0" d="M255.9,334.4l-14.6-145.6c-1.6-16.4-15.3-28.8-31.8-28.8h-99c-16.5,0-30.2,12.4-31.8,28.8
			c0,0-4.8,47.5-8.8,88.3c-0.5,5.1-1,10.1-1.5,15.1C68,310,60,332,71,345c8,10,28,6,44.2,6.9c2.5-0.1,6.4-0.1,9.9-0.1
			c35.3-0.4,71,1.2,106.1,0.3c4.4,0,8.8,0,8.8,0c4.5,0,8.8-1.9,11.9-5.2C254.9,343.4,256.4,338.9,255.9,334.4z"/>
	</g>
</g>
<g>
	<g>
		<circle class="st1" cx="320" cy="83" r="64"/>
	</g>
</g>
<g>
	<g>
		<path class="st1" d="M415.3,334.4l-14.6-145.6c-1.6-16.4-15.3-28.8-31.8-28.8h-99c-16.5,0-30.2,12.4-31.8,28.8
			c0,0-4.8,47.5-8.8,88.3c-0.5,5.1-1,10.1-1.5,15.1c-0.4,17.8-8.4,39.8,2.6,52.8c8,10,28,6,44.2,6.9c2.5-0.1,6.4-0.1,9.9-0.1
			c35.3-0.4,71,1.2,106.1,0.3c4.4,0,8.8,0,8.8,0c4.5,0,8.8-1.9,11.9-5.2C414.3,343.4,415.8,338.9,415.3,334.4z"/>
	</g>
</g>
</svg>
