<?xml version="1.0" encoding="utf-8"?>
<!-- Generator: Adobe Illustrator 25.2.1, SVG Export Plug-In . SVG Version: 6.00 Build 0)  -->
<svg version="1.1" id="Capa_1" xmlns="http://www.w3.org/2000/svg" xmlns:xlink="http://www.w3.org/1999/xlink" x="0px" y="0px"
	 viewBox="0 0 512 512" style="enable-background:new 0 0 512 512;" xml:space="preserve">
<style type="text/css">
	.st0{fill:#818181;}
</style>
<g id="_x3C_Group_x3E__4_">
	<g>
		<path class="st0" d="M422.8,507.6l-87.5-87.5l-42.4,42.4c-3.7,3.7-9,5.2-14,4c-5.1-1.2-9.1-4.9-10.8-9.9l-84.9-254.6
			c-1.8-5.4-0.4-11.3,3.6-15.4c4-4,10-5.5,15.4-3.6L456.7,268c4.9,1.6,8.7,5.7,9.9,10.8c1.2,5.1-0.3,10.4-4,14l-42.4,42.4l87.5,87.5
			c5.9,5.9,5.9,15.4,0,21.2L444,507.6C438.1,513.5,428.6,513.5,422.8,507.6z"/>
	</g>
	<g>
		<path class="st0" d="M195,120c-8.3,0-15-6.7-15-15V15c0-8.3,6.7-15,15-15s15,6.7,15,15v90C210,113.3,203.3,120,195,120z"/>
	</g>
	<g>
		<path class="st0" d="M120.8,142L57.1,78.3c-5.9-5.9-5.9-15.4,0-21.2s15.4-5.9,21.2,0l63.6,63.6c5.9,5.9,5.9,15.4,0,21.2
			C136.1,147.8,126.6,147.8,120.8,142z"/>
	</g>
	<g>
		<path class="st0" d="M57.1,332.9c-5.9-5.9-5.9-15.4,0-21.2l63.6-63.6c5.9-5.9,15.4-5.9,21.2,0s5.9,15.4,0,21.2l-63.6,63.6
			C72.5,338.7,63,338.7,57.1,332.9z"/>
	</g>
	<g>
		<path class="st0" d="M248,142c-5.9-5.9-5.9-15.4,0-21.2l63.6-63.6c5.9-5.9,15.4-5.9,21.2,0s5.9,15.4,0,21.2L269.2,142
			C263.4,147.8,253.9,147.8,248,142z"/>
	</g>
	<g>
		<path class="st0" d="M105,210H15c-8.3,0-15-6.7-15-15s6.7-15,15-15h90c8.3,0,15,6.7,15,15S113.3,210,105,210z"/>
	</g>
</g>
</svg>
