<?xml version="1.0" encoding="utf-8"?>
<!-- Generator: Adobe Illustrator 25.2.1, SVG Export Plug-In . SVG Version: 6.00 Build 0)  -->
<svg version="1.1" id="Capa_1" xmlns="http://www.w3.org/2000/svg" xmlns:xlink="http://www.w3.org/1999/xlink" x="0px" y="0px"
	 viewBox="0 0 448 448" style="enable-background:new 0 0 448 448;" xml:space="preserve">
<style type="text/css">
	.st0{fill:#818181;}
</style>
<path class="st0" d="M314.4,137.1H133.6l90.4,77.5L314.4,137.1z"/>
<path class="st0" d="M224,237c-2.2,0-4.3-0.8-6-2.2l-114-97.7v173.8h240V137.1l-114,97.7C228.3,236.3,226.2,237,224,237z"/>
<path class="st0" d="M224,0C100.3,0,0,100.3,0,224s100.3,224,224,224s224-100.3,224-224C447.9,100.3,347.7,0.1,224,0z M365.2,327.6
	c0,5.2-4.2,9.4-9.4,9.4H92.2c-5.2,0-9.4-4.2-9.4-9.4V120.4c0-5.2,4.2-9.4,9.4-9.4h263.7c5.2,0,9.4,4.2,9.4,9.4V327.6z"/>
</svg>
