<svg id="Capa_3" data-name="Capa 3" xmlns="http://www.w3.org/2000/svg" viewBox="0 0 632.11 497.12"><defs><style>.cls-1{fill:#246d85;}.cls-2{fill:#e9c568;}.cls-3{fill:#e87050;}</style></defs><path class="cls-1" d="M642.43,240.81l-181.8-2H192c-100.3,0-181.61-73.26-181.61-163.64h450.2C561,75.13,642.42,149.3,642.43,240.81Z" transform="translate(-10.32 -75.13)"/><path class="cls-2" d="M642.32,406.47l-181.8-2.05H191.93c-100.3,0-181.61-73.26-181.61-163.64h450.2C560.93,240.78,642.32,315,642.32,406.47Z" transform="translate(-10.32 -75.13)"/><path class="cls-3" d="M642.33,572.25l-181.8-2H191.93c-100.29,0-181.6-73.26-181.6-163.64h450.2C560.93,406.57,642.32,480.74,642.33,572.25Z" transform="translate(-10.32 -75.13)"/></svg>