<?xml version="1.0" encoding="utf-8"?>
<!-- Generator: Adobe Illustrator 25.2.1, SVG Export Plug-In . SVG Version: 6.00 Build 0)  -->
<svg version="1.1" id="Capa_1" xmlns="http://www.w3.org/2000/svg" xmlns:xlink="http://www.w3.org/1999/xlink" x="0px" y="0px"
	 viewBox="0 0 512 512" style="enable-background:new 0 0 512 512;" xml:space="preserve">
<style type="text/css">
	.st0{fill:#818181;}
</style>
<g>
	<g>
		<path class="st0" d="M407.8,62.9C367.2,22.3,313.3,0,256,0c-57.3,0-111.2,22.3-151.8,62.9c-40.5,40.5-62.9,94.4-62.9,151.8
			s22.3,111.2,62.9,151.8l141.2,141.2c2.9,2.9,6.8,4.4,10.6,4.4c3.8,0,7.7-1.5,10.6-4.4l141.2-141.2c40.5-40.5,62.9-94.4,62.9-151.8
			C470.6,157.3,448.3,103.4,407.8,62.9z M323.4,282.1c-18,18-41.9,27.9-67.4,27.9s-49.4-9.9-67.4-27.9c-18-18-27.9-41.9-27.9-67.4
			c0-25.5,9.9-49.4,27.9-67.4c18-18,41.9-27.9,67.4-27.9s49.4,9.9,67.4,27.9c18,18,27.9,41.9,27.9,67.4
			C351.3,240.1,341.4,264.1,323.4,282.1z"/>
	</g>
</g>
</svg>
