<svg xmlns="http://www.w3.org/2000/svg" viewBox="0 0 172 100" width="172" height="100">
	<style>
		tspan { white-space:pre }
		.shp0 { fill: #faf7f7 } 
		.shp1 { fill: #fdfbfb } 
	</style>
	<g id="Layer">
		<path id="Layer" fill-rule="evenodd" class="shp0" d="M117.34 9.77C121.21 11.75 124.05 15.56 124.97 20.12C125.5 22.81 125.84 23.39 127.4 24.04C131.4 25.73 134.81 30.23 134.81 33.86C134.81 36.26 132.67 38.54 130.07 39.01L127.87 39.36L127.87 36.96C127.87 35.61 127.29 33.04 126.65 31.23L125.44 27.89L124.11 30.7C121.79 35.44 118.32 38.25 113.4 39.24C111.78 39.53 112.25 39.65 115.43 39.71L119.48 39.77L126.42 49.24C130.24 54.44 133.42 58.89 133.54 59.06C133.6 59.3 132.44 59.77 130.93 60.12C128.21 60.76 128.16 60.76 126.59 58.95C125.73 57.95 123.76 55.32 122.26 53.16C120.75 50.94 119.3 49.18 119.07 49.12C118.78 49.12 118.61 50.64 118.61 52.46C118.67 55.5 119.07 56.73 123.18 64.74L127.69 73.68L118.03 73.68L118.03 81.58C118.03 88.07 118.21 89.59 118.9 89.82C119.36 90.06 119.77 90.53 119.77 90.99C119.77 91.58 118.9 91.81 116.3 91.81L112.82 91.81L112.82 73.68L109.93 73.68L109.93 91.81L106.17 91.81C103.22 91.81 102.41 91.64 102.41 90.94C102.41 90.47 102.81 90.06 103.28 90.06C104.03 90.06 104.15 88.77 104.15 81.87L104.15 73.68L91.88 73.68L93.27 71.17C94.02 69.82 96.45 65.61 98.59 61.81C102.41 55.26 102.53 54.85 102.06 52.51L101.54 50.06L96.05 56.61C91.3 62.16 90.38 63.04 89.1 62.81C88.29 62.69 86.9 62.81 85.92 63.1C84.3 63.57 83.9 63.33 78.86 58.25L73.48 52.92L73.48 73.68L70.59 73.68L70.59 81.87C70.59 88.77 70.7 90.06 71.46 90.06C71.92 90.06 72.32 90.47 72.32 90.94C72.32 91.64 71.51 91.81 68.56 91.81L64.8 91.81L64.8 73.63L63.53 73.8C62.2 73.98 62.2 74.15 62.02 82.87L61.85 91.81L58.44 91.81C55.72 91.81 54.97 91.64 54.97 90.94C54.97 90.47 55.37 90.06 55.83 90.06C56.59 90.06 56.7 88.89 56.59 81.99C56.41 74.15 56.35 73.98 55.14 73.8C53.81 73.63 53.81 73.51 53.81 63.39C53.81 57.78 53.64 53.22 53.46 53.22C53.29 53.22 50.45 55.56 47.21 58.42L41.25 63.68L37.55 59.82L46.29 50.06L55.08 40.35L72.21 40.35L79.21 49.06C83.09 53.92 86.44 57.95 86.67 58.13C86.96 58.3 90.61 54.21 94.83 49.12L102.47 39.77L106.63 39.71C110.68 39.65 110.74 39.59 108.08 39.18C103.22 38.36 99.34 35.15 97.2 30.23C96.51 28.65 95.7 27.6 95.35 27.84C94.31 28.48 92.69 32.87 92.23 36.08C91.76 39.59 91.19 39.88 88.64 37.72C84.18 33.92 86.73 26.61 93.27 24.44C95.7 23.63 95.76 23.57 96.68 19.53C97.14 17.31 98.01 14.68 98.53 13.63C99.75 11.35 102.58 9.06 105.3 8.25C108.6 7.25 113.75 7.89 117.34 9.77ZM110.97 21.17L110.8 18.6L109.82 20.29C109.3 21.17 108.08 22.69 107.1 23.63L105.36 25.32L105.01 23.63C104.26 20.23 104.2 20.23 102.12 22.57C99.81 25.2 99.69 26.14 101.25 29.18C103.51 33.68 107.21 35.56 112.59 34.91C117.05 34.44 121.45 29.65 121.5 25.2C121.5 23.8 121.45 23.8 116.99 24.15C114.56 24.33 112.19 24.33 111.84 24.09C111.49 23.86 111.09 22.51 110.97 21.17Z" />
		<path id="Layer" fill-rule="evenodd" class="shp1" d="M63.93 12.57C70.65 12.98 73.36 13.63 74.87 15.2C75.97 16.32 76.08 17.02 75.91 22.11C75.74 29.47 74.06 33.27 69.84 35.91C65.67 38.48 61.5 38.65 57.28 36.43C52.65 33.98 51.03 31.05 50.16 23.68L49.53 17.95L51.26 16.55C52.19 15.73 54.27 14.44 55.83 13.68C58.5 12.34 59.19 12.22 63.93 12.57ZM60.46 22.92C59.83 23.33 58.15 23.8 56.7 23.98L54.1 24.27L54.21 26.55C54.5 30.94 58.96 35.09 63.47 35.09C66.36 35.09 70.07 32.69 71.57 29.82C73.13 26.9 73.31 24.27 71.98 23.74C70.53 23.16 64.45 23.33 62.78 23.98C61.39 24.5 61.27 24.44 61.62 23.39C62.02 22.05 62.02 22.05 60.46 22.92Z" />
	</g>
</svg>