<?xml version="1.0" encoding="utf-8"?>
<!-- Generator: Adobe Illustrator 25.2.1, SVG Export Plug-In . SVG Version: 6.00 Build 0)  -->
<svg version="1.1" id="Layer_1" xmlns="http://www.w3.org/2000/svg" xmlns:xlink="http://www.w3.org/1999/xlink" x="0px" y="0px"
	 viewBox="0 0 503.6 503.6" style="enable-background:new 0 0 503.6 503.6;" xml:space="preserve">
<style type="text/css">
	.st0{fill:#818181;}
</style>
<g>
	<g>
		<path class="st0" d="M337.3,0H167.2c-28.9,0-53.5,23.6-53.5,52.5v398.7c0,28.9,24.1,52.4,53,52.4l170.4-0.2
			c28.9,0,52.6-23.5,52.6-52.4l0.2-398.5C389.9,23.5,366.4,0,337.3,0z M227.7,31.5H277c4.3,0,7.9,3.5,7.9,7.9s-3.5,7.9-7.9,7.9
			h-49.4c-4.3,0-7.9-3.5-7.9-7.9C219.8,35,223.3,31.5,227.7,31.5z M198,34c2.9-2.9,8.2-3,11.1,0c1.5,1.5,2.3,3.5,2.3,5.6
			c0,2-0.9,4.1-2.3,5.5c-1.5,1.5-3.5,2.3-5.5,2.3c-2.1,0-4.1-0.9-5.6-2.3c-1.5-1.5-2.3-3.5-2.3-5.5C195.7,37.5,196.6,35.4,198,34z
			 M250.8,488c-13,0-23.5-10.6-23.5-23.5c0-13,10.6-23.5,23.5-23.5s23.5,10.6,23.5,23.5C274.3,477.4,263.8,488,250.8,488z
			 M365.5,424.9H141.2V74.8h224.3L365.5,424.9L365.5,424.9z"/>
	</g>
</g>
</svg>
